<mxfile host="app.diagrams.net" modified="2024-04-02T15:08:54.815Z" agent="Mozilla/5.0 (Windows NT 10.0; Win64; x64) AppleWebKit/537.36 (KHTML, like Gecko) Chrome/122.0.0.0 Safari/537.36 OPR/108.0.0.0" etag="KPsqedC4423YG94PlC4s" version="24.2.1" type="device">
  <diagram id="TdIycy619lCjquOg5PRG" name="Page-1">
    <mxGraphModel dx="892" dy="921" grid="1" gridSize="10" guides="1" tooltips="1" connect="1" arrows="1" fold="1" page="1" pageScale="1" pageWidth="827" pageHeight="1169" math="0" shadow="0">
      <root>
        <mxCell id="0" />
        <mxCell id="1" parent="0" />
        <mxCell id="RsiUtMNR3Jxbig1LU8Y--2" value="movies" style="swimlane;fontStyle=0;childLayout=stackLayout;horizontal=1;startSize=30;horizontalStack=0;resizeParent=1;resizeParentMax=0;resizeLast=0;collapsible=1;marginBottom=0;" parent="1" vertex="1">
          <mxGeometry x="560" y="610" width="160" height="240" as="geometry" />
        </mxCell>
        <mxCell id="RsiUtMNR3Jxbig1LU8Y--3" value="id" style="text;strokeColor=none;fillColor=none;align=left;verticalAlign=middle;spacingLeft=4;spacingRight=4;overflow=hidden;points=[[0,0.5],[1,0.5]];portConstraint=eastwest;rotatable=0;" parent="RsiUtMNR3Jxbig1LU8Y--2" vertex="1">
          <mxGeometry y="30" width="160" height="30" as="geometry" />
        </mxCell>
        <mxCell id="RsiUtMNR3Jxbig1LU8Y--4" value="name" style="text;strokeColor=none;fillColor=none;align=left;verticalAlign=middle;spacingLeft=4;spacingRight=4;overflow=hidden;points=[[0,0.5],[1,0.5]];portConstraint=eastwest;rotatable=0;" parent="RsiUtMNR3Jxbig1LU8Y--2" vertex="1">
          <mxGeometry y="60" width="160" height="30" as="geometry" />
        </mxCell>
        <mxCell id="U5i5qERmR7sxy5_J57RF-4" value="citation1" style="text;strokeColor=none;fillColor=none;align=left;verticalAlign=middle;spacingLeft=4;spacingRight=4;overflow=hidden;points=[[0,0.5],[1,0.5]];portConstraint=eastwest;rotatable=0;" vertex="1" parent="RsiUtMNR3Jxbig1LU8Y--2">
          <mxGeometry y="90" width="160" height="30" as="geometry" />
        </mxCell>
        <mxCell id="U5i5qERmR7sxy5_J57RF-5" value="citation2" style="text;strokeColor=none;fillColor=none;align=left;verticalAlign=middle;spacingLeft=4;spacingRight=4;overflow=hidden;points=[[0,0.5],[1,0.5]];portConstraint=eastwest;rotatable=0;" vertex="1" parent="RsiUtMNR3Jxbig1LU8Y--2">
          <mxGeometry y="120" width="160" height="30" as="geometry" />
        </mxCell>
        <mxCell id="U5i5qERmR7sxy5_J57RF-6" value="citation3" style="text;strokeColor=none;fillColor=none;align=left;verticalAlign=middle;spacingLeft=4;spacingRight=4;overflow=hidden;points=[[0,0.5],[1,0.5]];portConstraint=eastwest;rotatable=0;" vertex="1" parent="RsiUtMNR3Jxbig1LU8Y--2">
          <mxGeometry y="150" width="160" height="30" as="geometry" />
        </mxCell>
        <mxCell id="U5i5qERmR7sxy5_J57RF-8" value="citation4" style="text;strokeColor=none;fillColor=none;align=left;verticalAlign=middle;spacingLeft=4;spacingRight=4;overflow=hidden;points=[[0,0.5],[1,0.5]];portConstraint=eastwest;rotatable=0;" vertex="1" parent="RsiUtMNR3Jxbig1LU8Y--2">
          <mxGeometry y="180" width="160" height="30" as="geometry" />
        </mxCell>
        <mxCell id="U5i5qERmR7sxy5_J57RF-7" value="citation5" style="text;strokeColor=none;fillColor=none;align=left;verticalAlign=middle;spacingLeft=4;spacingRight=4;overflow=hidden;points=[[0,0.5],[1,0.5]];portConstraint=eastwest;rotatable=0;" vertex="1" parent="RsiUtMNR3Jxbig1LU8Y--2">
          <mxGeometry y="210" width="160" height="30" as="geometry" />
        </mxCell>
        <mxCell id="RsiUtMNR3Jxbig1LU8Y--19" value="users" style="swimlane;fontStyle=0;childLayout=stackLayout;horizontal=1;startSize=30;horizontalStack=0;resizeParent=1;resizeParentMax=0;resizeLast=0;collapsible=1;marginBottom=0;" parent="1" vertex="1">
          <mxGeometry x="560" y="220" width="160" height="120" as="geometry" />
        </mxCell>
        <mxCell id="RsiUtMNR3Jxbig1LU8Y--20" value="id (cookie ?)" style="text;strokeColor=none;fillColor=none;align=left;verticalAlign=middle;spacingLeft=4;spacingRight=4;overflow=hidden;points=[[0,0.5],[1,0.5]];portConstraint=eastwest;rotatable=0;" parent="RsiUtMNR3Jxbig1LU8Y--19" vertex="1">
          <mxGeometry y="30" width="160" height="30" as="geometry" />
        </mxCell>
        <mxCell id="KNp-MNDDb9Qc2YEaJZSN-2" value="stats (win/played)" style="text;strokeColor=none;fillColor=none;align=left;verticalAlign=middle;spacingLeft=4;spacingRight=4;overflow=hidden;points=[[0,0.5],[1,0.5]];portConstraint=eastwest;rotatable=0;" parent="RsiUtMNR3Jxbig1LU8Y--19" vertex="1">
          <mxGeometry y="60" width="160" height="30" as="geometry" />
        </mxCell>
        <mxCell id="RsiUtMNR3Jxbig1LU8Y--36" value="is_admin" style="text;strokeColor=none;fillColor=none;align=left;verticalAlign=middle;spacingLeft=4;spacingRight=4;overflow=hidden;points=[[0,0.5],[1,0.5]];portConstraint=eastwest;rotatable=0;" parent="RsiUtMNR3Jxbig1LU8Y--19" vertex="1">
          <mxGeometry y="90" width="160" height="30" as="geometry" />
        </mxCell>
        <mxCell id="KNp-MNDDb9Qc2YEaJZSN-4" style="edgeStyle=orthogonalEdgeStyle;rounded=0;orthogonalLoop=1;jettySize=auto;html=1;exitX=1.005;exitY=0.075;exitDx=0;exitDy=0;entryX=0;entryY=0.5;entryDx=0;entryDy=0;exitPerimeter=0;" parent="1" source="RsiUtMNR3Jxbig1LU8Y--29" target="RsiUtMNR3Jxbig1LU8Y--4" edge="1">
          <mxGeometry relative="1" as="geometry" />
        </mxCell>
        <mxCell id="RsiUtMNR3Jxbig1LU8Y--29" value="" style="swimlane;startSize=0;" parent="1" vertex="1">
          <mxGeometry x="340" y="674" width="160" height="150" as="geometry" />
        </mxCell>
        <mxCell id="RsiUtMNR3Jxbig1LU8Y--32" value="bdd tmdb" style="text;html=1;align=center;verticalAlign=middle;resizable=0;points=[];autosize=1;strokeColor=none;fillColor=none;" parent="RsiUtMNR3Jxbig1LU8Y--29" vertex="1">
          <mxGeometry x="45" y="65" width="70" height="20" as="geometry" />
        </mxCell>
        <mxCell id="RsiUtMNR3Jxbig1LU8Y--31" value="API" style="text;html=1;align=center;verticalAlign=middle;resizable=0;points=[];autosize=1;strokeColor=none;fillColor=none;" parent="1" vertex="1">
          <mxGeometry x="780" y="750" width="30" height="20" as="geometry" />
        </mxCell>
        <mxCell id="U5i5qERmR7sxy5_J57RF-25" style="edgeStyle=orthogonalEdgeStyle;rounded=0;orthogonalLoop=1;jettySize=auto;html=1;exitX=0;exitY=0.5;exitDx=0;exitDy=0;entryX=1;entryY=0.5;entryDx=0;entryDy=0;" edge="1" parent="1" source="RsiUtMNR3Jxbig1LU8Y--37" target="U5i5qERmR7sxy5_J57RF-4">
          <mxGeometry relative="1" as="geometry" />
        </mxCell>
        <mxCell id="U5i5qERmR7sxy5_J57RF-26" style="edgeStyle=orthogonalEdgeStyle;rounded=0;orthogonalLoop=1;jettySize=auto;html=1;exitX=0;exitY=0.5;exitDx=0;exitDy=0;entryX=1;entryY=0.5;entryDx=0;entryDy=0;" edge="1" parent="1" source="RsiUtMNR3Jxbig1LU8Y--37" target="U5i5qERmR7sxy5_J57RF-5">
          <mxGeometry relative="1" as="geometry" />
        </mxCell>
        <mxCell id="U5i5qERmR7sxy5_J57RF-27" style="edgeStyle=orthogonalEdgeStyle;rounded=0;orthogonalLoop=1;jettySize=auto;html=1;exitX=0;exitY=0.5;exitDx=0;exitDy=0;entryX=1;entryY=0.5;entryDx=0;entryDy=0;" edge="1" parent="1" source="RsiUtMNR3Jxbig1LU8Y--37" target="U5i5qERmR7sxy5_J57RF-6">
          <mxGeometry relative="1" as="geometry" />
        </mxCell>
        <mxCell id="U5i5qERmR7sxy5_J57RF-28" style="edgeStyle=orthogonalEdgeStyle;rounded=0;orthogonalLoop=1;jettySize=auto;html=1;exitX=0;exitY=0.5;exitDx=0;exitDy=0;entryX=1;entryY=0.5;entryDx=0;entryDy=0;" edge="1" parent="1" source="RsiUtMNR3Jxbig1LU8Y--37" target="U5i5qERmR7sxy5_J57RF-8">
          <mxGeometry relative="1" as="geometry" />
        </mxCell>
        <mxCell id="U5i5qERmR7sxy5_J57RF-29" style="edgeStyle=orthogonalEdgeStyle;rounded=0;orthogonalLoop=1;jettySize=auto;html=1;exitX=0;exitY=0.5;exitDx=0;exitDy=0;entryX=1;entryY=0.5;entryDx=0;entryDy=0;" edge="1" parent="1" source="RsiUtMNR3Jxbig1LU8Y--37" target="U5i5qERmR7sxy5_J57RF-7">
          <mxGeometry relative="1" as="geometry" />
        </mxCell>
        <mxCell id="RsiUtMNR3Jxbig1LU8Y--37" value="chatgpt" style="whiteSpace=wrap;html=1;" parent="1" vertex="1">
          <mxGeometry x="820" y="745" width="100" height="60" as="geometry" />
        </mxCell>
        <mxCell id="RsiUtMNR3Jxbig1LU8Y--39" value="&lt;span style=&quot;&quot;&gt;API&lt;/span&gt;" style="text;html=1;align=center;verticalAlign=middle;resizable=0;points=[];autosize=1;strokeColor=none;fillColor=none;" parent="1" vertex="1">
          <mxGeometry x="510" y="690" width="40" height="30" as="geometry" />
        </mxCell>
        <mxCell id="RsiUtMNR3Jxbig1LU8Y--42" value="reports" style="swimlane;fontStyle=0;childLayout=stackLayout;horizontal=1;startSize=30;horizontalStack=0;resizeParent=1;resizeParentMax=0;resizeLast=0;collapsible=1;marginBottom=0;" parent="1" vertex="1">
          <mxGeometry x="360" y="380" width="160" height="120" as="geometry" />
        </mxCell>
        <mxCell id="RsiUtMNR3Jxbig1LU8Y--44" value="user_id" style="text;strokeColor=none;fillColor=none;align=left;verticalAlign=middle;spacingLeft=4;spacingRight=4;overflow=hidden;points=[[0,0.5],[1,0.5]];portConstraint=eastwest;rotatable=0;" parent="RsiUtMNR3Jxbig1LU8Y--42" vertex="1">
          <mxGeometry y="30" width="160" height="30" as="geometry" />
        </mxCell>
        <mxCell id="RsiUtMNR3Jxbig1LU8Y--46" value="movie_id" style="text;strokeColor=none;fillColor=none;align=left;verticalAlign=middle;spacingLeft=4;spacingRight=4;overflow=hidden;points=[[0,0.5],[1,0.5]];portConstraint=eastwest;rotatable=0;" parent="RsiUtMNR3Jxbig1LU8Y--42" vertex="1">
          <mxGeometry y="60" width="160" height="30" as="geometry" />
        </mxCell>
        <mxCell id="RsiUtMNR3Jxbig1LU8Y--47" value="issue" style="text;strokeColor=none;fillColor=none;align=left;verticalAlign=middle;spacingLeft=4;spacingRight=4;overflow=hidden;points=[[0,0.5],[1,0.5]];portConstraint=eastwest;rotatable=0;" parent="RsiUtMNR3Jxbig1LU8Y--42" vertex="1">
          <mxGeometry y="90" width="160" height="30" as="geometry" />
        </mxCell>
        <mxCell id="RsiUtMNR3Jxbig1LU8Y--50" value="scores" style="swimlane;fontStyle=0;childLayout=stackLayout;horizontal=1;startSize=30;horizontalStack=0;resizeParent=1;resizeParentMax=0;resizeLast=0;collapsible=1;marginBottom=0;" parent="1" vertex="1">
          <mxGeometry x="740" y="330" width="160" height="240" as="geometry" />
        </mxCell>
        <mxCell id="RsiUtMNR3Jxbig1LU8Y--51" value="user_id" style="text;strokeColor=none;fillColor=none;align=left;verticalAlign=middle;spacingLeft=4;spacingRight=4;overflow=hidden;points=[[0,0.5],[1,0.5]];portConstraint=eastwest;rotatable=0;" parent="RsiUtMNR3Jxbig1LU8Y--50" vertex="1">
          <mxGeometry y="30" width="160" height="30" as="geometry" />
        </mxCell>
        <mxCell id="RsiUtMNR3Jxbig1LU8Y--52" value="movie_id" style="text;strokeColor=none;fillColor=none;align=left;verticalAlign=middle;spacingLeft=4;spacingRight=4;overflow=hidden;points=[[0,0.5],[1,0.5]];portConstraint=eastwest;rotatable=0;" parent="RsiUtMNR3Jxbig1LU8Y--50" vertex="1">
          <mxGeometry y="60" width="160" height="30" as="geometry" />
        </mxCell>
        <mxCell id="RsiUtMNR3Jxbig1LU8Y--62" value="score1" style="text;strokeColor=none;fillColor=none;align=left;verticalAlign=middle;spacingLeft=4;spacingRight=4;overflow=hidden;points=[[0,0.5],[1,0.5]];portConstraint=eastwest;rotatable=0;" parent="RsiUtMNR3Jxbig1LU8Y--50" vertex="1">
          <mxGeometry y="90" width="160" height="30" as="geometry" />
        </mxCell>
        <mxCell id="U5i5qERmR7sxy5_J57RF-18" value="score2" style="text;strokeColor=none;fillColor=none;align=left;verticalAlign=middle;spacingLeft=4;spacingRight=4;overflow=hidden;points=[[0,0.5],[1,0.5]];portConstraint=eastwest;rotatable=0;" vertex="1" parent="RsiUtMNR3Jxbig1LU8Y--50">
          <mxGeometry y="120" width="160" height="30" as="geometry" />
        </mxCell>
        <mxCell id="U5i5qERmR7sxy5_J57RF-20" value="score3" style="text;strokeColor=none;fillColor=none;align=left;verticalAlign=middle;spacingLeft=4;spacingRight=4;overflow=hidden;points=[[0,0.5],[1,0.5]];portConstraint=eastwest;rotatable=0;" vertex="1" parent="RsiUtMNR3Jxbig1LU8Y--50">
          <mxGeometry y="150" width="160" height="30" as="geometry" />
        </mxCell>
        <mxCell id="U5i5qERmR7sxy5_J57RF-21" value="score4" style="text;strokeColor=none;fillColor=none;align=left;verticalAlign=middle;spacingLeft=4;spacingRight=4;overflow=hidden;points=[[0,0.5],[1,0.5]];portConstraint=eastwest;rotatable=0;" vertex="1" parent="RsiUtMNR3Jxbig1LU8Y--50">
          <mxGeometry y="180" width="160" height="30" as="geometry" />
        </mxCell>
        <mxCell id="U5i5qERmR7sxy5_J57RF-19" value="score5" style="text;strokeColor=none;fillColor=none;align=left;verticalAlign=middle;spacingLeft=4;spacingRight=4;overflow=hidden;points=[[0,0.5],[1,0.5]];portConstraint=eastwest;rotatable=0;" vertex="1" parent="RsiUtMNR3Jxbig1LU8Y--50">
          <mxGeometry y="210" width="160" height="30" as="geometry" />
        </mxCell>
        <mxCell id="KNp-MNDDb9Qc2YEaJZSN-5" style="edgeStyle=orthogonalEdgeStyle;rounded=0;orthogonalLoop=1;jettySize=auto;html=1;exitX=0;exitY=0.5;exitDx=0;exitDy=0;entryX=0;entryY=0.5;entryDx=0;entryDy=0;startArrow=classic;startFill=1;" parent="1" source="RsiUtMNR3Jxbig1LU8Y--3" target="RsiUtMNR3Jxbig1LU8Y--46" edge="1">
          <mxGeometry relative="1" as="geometry" />
        </mxCell>
        <mxCell id="KNp-MNDDb9Qc2YEaJZSN-7" style="edgeStyle=orthogonalEdgeStyle;rounded=0;orthogonalLoop=1;jettySize=auto;html=1;exitX=0;exitY=0.5;exitDx=0;exitDy=0;entryX=0;entryY=0.5;entryDx=0;entryDy=0;startArrow=classic;startFill=1;" parent="1" source="RsiUtMNR3Jxbig1LU8Y--44" target="RsiUtMNR3Jxbig1LU8Y--20" edge="1">
          <mxGeometry relative="1" as="geometry" />
        </mxCell>
        <mxCell id="KNp-MNDDb9Qc2YEaJZSN-8" style="edgeStyle=orthogonalEdgeStyle;rounded=0;orthogonalLoop=1;jettySize=auto;html=1;exitX=1;exitY=0.5;exitDx=0;exitDy=0;entryX=1;entryY=0.5;entryDx=0;entryDy=0;startArrow=classic;startFill=1;" parent="1" source="RsiUtMNR3Jxbig1LU8Y--20" target="RsiUtMNR3Jxbig1LU8Y--51" edge="1">
          <mxGeometry relative="1" as="geometry" />
        </mxCell>
        <mxCell id="KNp-MNDDb9Qc2YEaJZSN-9" style="edgeStyle=orthogonalEdgeStyle;rounded=0;orthogonalLoop=1;jettySize=auto;html=1;exitX=1;exitY=0.5;exitDx=0;exitDy=0;entryX=1;entryY=0.5;entryDx=0;entryDy=0;startArrow=classic;startFill=1;" parent="1" source="RsiUtMNR3Jxbig1LU8Y--3" target="RsiUtMNR3Jxbig1LU8Y--52" edge="1">
          <mxGeometry relative="1" as="geometry" />
        </mxCell>
        <mxCell id="KNp-MNDDb9Qc2YEaJZSN-12" value="&lt;font style=&quot;font-size: 15px;&quot;&gt;1,1&lt;/font&gt;" style="text;html=1;align=center;verticalAlign=middle;whiteSpace=wrap;rounded=0;" parent="1" vertex="1">
          <mxGeometry x="495" y="270" width="60" height="30" as="geometry" />
        </mxCell>
        <mxCell id="KNp-MNDDb9Qc2YEaJZSN-13" value="&lt;font style=&quot;font-size: 15px;&quot;&gt;1,1&lt;/font&gt;" style="text;html=1;align=center;verticalAlign=middle;whiteSpace=wrap;rounded=0;" parent="1" vertex="1">
          <mxGeometry x="720" y="270" width="60" height="30" as="geometry" />
        </mxCell>
        <mxCell id="KNp-MNDDb9Qc2YEaJZSN-14" value="&lt;font style=&quot;font-size: 15px;&quot;&gt;0,1&lt;/font&gt;" style="text;html=1;align=center;verticalAlign=middle;whiteSpace=wrap;rounded=0;" parent="1" vertex="1">
          <mxGeometry x="495" y="620" width="60" height="30" as="geometry" />
        </mxCell>
        <mxCell id="KNp-MNDDb9Qc2YEaJZSN-15" value="&lt;font style=&quot;font-size: 15px;&quot;&gt;1,1&lt;/font&gt;" style="text;html=1;align=center;verticalAlign=middle;whiteSpace=wrap;rounded=0;" parent="1" vertex="1">
          <mxGeometry x="730" y="620" width="60" height="30" as="geometry" />
        </mxCell>
        <mxCell id="KNp-MNDDb9Qc2YEaJZSN-17" value="&lt;font style=&quot;font-size: 15px;&quot;&gt;0,n&lt;/font&gt;" style="text;html=1;align=center;verticalAlign=middle;whiteSpace=wrap;rounded=0;" parent="1" vertex="1">
          <mxGeometry x="280" y="390" width="60" height="30" as="geometry" />
        </mxCell>
        <mxCell id="KNp-MNDDb9Qc2YEaJZSN-18" value="&lt;font style=&quot;font-size: 15px;&quot;&gt;0,n&lt;/font&gt;" style="text;html=1;align=center;verticalAlign=middle;whiteSpace=wrap;rounded=0;" parent="1" vertex="1">
          <mxGeometry x="280" y="460" width="60" height="30" as="geometry" />
        </mxCell>
        <mxCell id="KNp-MNDDb9Qc2YEaJZSN-19" value="&lt;font style=&quot;font-size: 15px;&quot;&gt;0,n&lt;/font&gt;" style="text;html=1;align=center;verticalAlign=middle;whiteSpace=wrap;rounded=0;" parent="1" vertex="1">
          <mxGeometry x="920" y="350" width="60" height="30" as="geometry" />
        </mxCell>
        <mxCell id="KNp-MNDDb9Qc2YEaJZSN-20" value="&lt;font style=&quot;font-size: 15px;&quot;&gt;0,n&lt;/font&gt;" style="text;html=1;align=center;verticalAlign=middle;whiteSpace=wrap;rounded=0;" parent="1" vertex="1">
          <mxGeometry x="920" y="410" width="60" height="30" as="geometry" />
        </mxCell>
      </root>
    </mxGraphModel>
  </diagram>
</mxfile>
